P1
8 2008

# This is a font bitmap.
# For easy editing, I recommend highlighing all occurrences of "1" in your editor.

# The font was taken from rxTools, which in turn took it from devkitpro. I have no idea where it originally came from, but it's nice.

00000000
00000000
00000000
00000000
00000000
00000000
00000000
00000000

01111110
10000001
10100101
10000001
10111101
10011001
10000001
01111110

01111110
11111111
11011011
11111111
11000011
11100111
11111111
01111110

01101100
11111110
11111110
11111110
01111100
00111000
00010000
00000000

00010000
00111000
01111100
11111110
01111100
00111000
00010000
00000000

00111100
00111100
00011000
11111111
11100111
00011000
00111100
00000000

00010000
00111000
01111100
11111110
11101110
00010000
00111000
00000000

00000000
00000000
00011000
00111100
00111100
00011000
00000000
00000000

11111111
11111111
11100111
11000011
11000011
11100111
11111111
11111111

00000000
00111100
01100110
01000010
01000010
01100110
00111100
00000000

11111111
11000011
10011001
10111101
10111101
10011001
11000011
11111111

00001111
00000111
00001111
01111101
11001100
11001100
11001100
01111000

00111100
01100110
01100110
01100110
00111100
00011000
01111110
00011000

00001000
00001100
00001010
00001010
00001000
01111000
11110000
00000000

00011000
00010100
00011010
00010110
01110010
11100010
00001110
00011100

00010000
01010100
00111000
11101110
00111000
01010100
00010000
00000000

10000000
11100000
11111000
11111110
11111000
11100000
10000000
00000000

00000010
00001110
00111110
11111110
00111110
00001110
00000010
00000000

00011000
00111100
01011010
00011000
01011010
00111100
00011000
00000000

01100110
01100110
01100110
01100110
01100110
00000000
01100110
00000000

01111111
11011011
11011011
11011011
01111011
00011011
00011011
00000000

00011100
00100010
00111000
01000100
01000100
00111000
10001000
01110000

00000000
00000000
00000000
00000000
01111110
01111110
01111110
00000000

00011000
00111100
01011010
00011000
01011010
00111100
00011000
01111110

00011000
00111100
01011010
00011000
00011000
00011000
00011000
00000000

00011000
00011000
00011000
00011000
01011010
00111100
00011000
00000000

00000000
00011000
00001100
11111110
00001100
00011000
00000000
00000000

00000000
00110000
01100000
11111110
01100000
00110000
00000000
00000000

00000000
00000000
11000000
11000000
11000000
11111110
00000000
00000000

00000000
00100100
01000010
11111111
01000010
00100100
00000000
00000000

00000000
00010000
00111000
01111100
11111110
11111110
00000000
00000000

00000000
11111110
11111110
01111100
00111000
00010000
00000000
00000000

00000000
00000000
00000000
00000000
00000000
00000000
00000000
00000000

00011000
00111100
00111100
00011000
00011000
00000000
00011000
00000000

01101100
00100100
00100100
00000000
00000000
00000000
00000000
00000000

01101100
01101100
11111110
01101100
11111110
01101100
01101100
00000000

00010000
01111100
11010000
01111100
00010110
11111100
00010000
00000000

00000000
01100110
10101100
11011000
00110110
01101010
11001100
00000000

00111000
01001100
00111000
01111000
11001110
11001100
01111010
00000000

00110000
00010000
00100000
00000000
00000000
00000000
00000000
00000000

00011000
00110000
01100000
01100000
01100000
00110000
00011000
00000000

01100000
00110000
00011000
00011000
00011000
00110000
01100000
00000000

00000000
01100110
00111100
11111111
00111100
01100110
00000000
00000000

00000000
00110000
00110000
11111100
00110000
00110000
00000000
00000000

00000000
00000000
00000000
00000000
00000000
00110000
00010000
00100000

00000000
00000000
00000000
11111100
00000000
00000000
00000000
00000000

00000000
00000000
00000000
00000000
00000000
00000000
00110000
00000000

00000010
00000110
00001100
00011000
00110000
01100000
11000000
00000000

01111100
11001110
11011110
11110110
11100110
11100110
01111100
00000000

00011000
00111000
01111000
00011000
00011000
00011000
01111110
00000000

01111100
11000110
00000110
00011100
01110000
11000110
11111110
00000000

01111100
11000110
00000110
00111100
00000110
11000110
01111100
00000000

00011100
00111100
01101100
11001100
11111110
00001100
00011110
00000000

11111110
11000000
11111100
00000110
00000110
11000110
01111100
00000000

01111100
11000110
11000000
11111100
11000110
11000110
01111100
00000000

11111110
11000110
00001100
00011000
00110000
00110000
00110000
00000000

01111100
11000110
11000110
01111100
11000110
11000110
01111100
00000000

01111100
11000110
11000110
01111110
00000110
11000110
01111100
00000000

00000000
00110000
00000000
00000000
00000000
00110000
00000000
00000000

00000000
00110000
00000000
00000000
00000000
00110000
00010000
00100000

00001100
00011000
00110000
01100000
00110000
00011000
00001100
00000000

00000000
00000000
01111110
00000000
00000000
01111110
00000000
00000000

01100000
00110000
00011000
00001100
00011000
00110000
01100000
00000000

01111000
11001100
00001100
00011000
00110000
00000000
00110000
00000000

01111100
10000010
10011110
10100110
10011110
10000000
01111100
00000000

01111100
11000110
11000110
11111110
11000110
11000110
11000110
00000000

11111100
01100110
01100110
01111100
01100110
01100110
11111100
00000000

01111100
11000110
11000000
11000000
11000000
11000110
01111100
00000000

11111100
01100110
01100110
01100110
01100110
01100110
11111100
00000000

11111110
01100010
01101000
01111000
01101000
01100010
11111110
00000000

11111110
01100010
01101000
01111000
01101000
01100000
11110000
00000000

01111100
11000110
11000110
11000000
11001110
11000110
01111110
00000000

11000110
11000110
11000110
11111110
11000110
11000110
11000110
00000000

00111100
00011000
00011000
00011000
00011000
00011000
00111100
00000000

00011110
00001100
00001100
00001100
11001100
11001100
01111000
00000000

11100110
01100110
01101100
01111000
01101100
01100110
11100110
00000000

11110000
01100000
01100000
01100000
01100010
01100110
11111110
00000000

10000010
11000110
11101110
11111110
11010110
11000110
11000110
00000000

11000110
11100110
11110110
11011110
11001110
11000110
11000110
00000000

01111100
11000110
11000110
11000110
11000110
11000110
01111100
00000000

11111100
01100110
01100110
01111100
01100000
01100000
11110000
00000000

01111100
11000110
11000110
11000110
11010110
11011110
01111100
00000110

11111100
01100110
01100110
01111100
01100110
01100110
11100110
00000000

01111100
11000110
11000000
01111100
00000110
11000110
01111100
00000000

01111110
01011010
01011010
00011000
00011000
00011000
00111100
00000000

11000110
11000110
11000110
11000110
11000110
11000110
01111100
00000000

11000110
11000110
11000110
11000110
01101100
00111000
00010000
00000000

11000110
11000110
11010110
11111110
11101110
11000110
10000010
00000000

11000110
01101100
00111000
00111000
00111000
01101100
11000110
00000000

01100110
01100110
01100110
00111100
00011000
00011000
00111100
00000000

11111110
11000110
10001100
00011000
00110010
01100110
11111110
00000000

01111000
01100000
01100000
01100000
01100000
01100000
01111000
00000000

11000000
01100000
00110000
00011000
00001100
00000110
00000010
00000000

01111000
00011000
00011000
00011000
00011000
00011000
01111000
00000000

00010000
00111000
01101100
11000110
00000000
00000000
00000000
00000000

00000000
00000000
00000000
00000000
00000000
00000000
00000000
11111111

00110000
00100000
00010000
00000000
00000000
00000000
00000000
00000000

00000000
00000000
01111000
00001100
01111100
11001100
01110110
00000000

11100000
01100000
01100000
01111100
01100110
01100110
01111100
00000000

00000000
00000000
01111100
11000110
11000000
11000110
01111100
00000000

00011100
00001100
00001100
01111100
11001100
11001100
01110110
00000000

00000000
00000000
01111100
11000110
11111110
11000000
01111100
00000000

00011100
00110110
00110000
01111000
00110000
00110000
01111000
00000000

00000000
00000000
01110110
11001100
11001100
01111100
00001100
01111000

11100000
01100000
01101100
01110110
01100110
01100110
11100110
00000000

00011000
00000000
00111000
00011000
00011000
00011000
00111100
00000000

00000000
00001100
00000000
00011100
00001100
00001100
11001100
01111000

11100000
01100000
01100110
01101100
01111000
01101100
11100110
00000000

00111000
00011000
00011000
00011000
00011000
00011000
00111100
00000000

00000000
00000000
11001100
11111110
11010110
11010110
11010110
00000000

00000000
00000000
11011100
01100110
01100110
01100110
01100110
00000000

00000000
00000000
01111100
11000110
11000110
11000110
01111100
00000000

00000000
00000000
11011100
01100110
01100110
01111100
01100000
11110000

00000000
00000000
01111100
11001100
11001100
01111100
00001100
00011110

00000000
00000000
11011110
01110110
01100000
01100000
11110000
00000000

00000000
00000000
01111100
11000000
01111100
00000110
01111100
00000000

00010000
00110000
11111100
00110000
00110000
00110100
00011000
00000000

00000000
00000000
11001100
11001100
11001100
11001100
01110110
00000000

00000000
00000000
11000110
11000110
01101100
00111000
00010000
00000000

00000000
00000000
11000110
11010110
11010110
11111110
01101100
00000000

00000000
00000000
11000110
01101100
00111000
01101100
11000110
00000000

00000000
00000000
11001100
11001100
11001100
01111100
00001100
11111000

00000000
00000000
11111100
10011000
00110000
01100100
11111100
00000000

00001110
00011000
00011000
00110000
00011000
00011000
00001110
00000000

00011000
00011000
00011000
00000000
00011000
00011000
00011000
00000000

11100000
00110000
00110000
00011000
00110000
00110000
11100000
00000000

01110110
11011100
00000000
00000000
00000000
00000000
00000000
00000000

00000000
00010000
00111000
01101100
11000110
11000110
11111110
00000000

01111100
11000110
11000000
11000000
11000110
01111100
00011000
01110000

11001100
00000000
11001100
11001100
11001100
11001100
01110110
00000000

00001110
00010000
01111100
11000110
11111110
11000000
01111100
00000000

01111100
10000010
00111000
00001100
01111100
11001100
01110110
00000000

11001100
00000000
01111000
00001100
01111100
11001100
01110110
00000000

11100000
00010000
01111000
00001100
01111100
11001100
01110110
00000000

00110000
00110000
01111000
00001100
01111100
11001100
01110110
00000000

00000000
00000000
01111100
11000000
11000000
01111100
00011000
01110000

01111100
10000010
01111100
11000110
11111110
11000000
01111100
00000000

11000110
00000000
01111100
11000110
11111110
11000000
01111100
00000000

11100000
00010000
01111100
11000110
11111110
11000000
01111100
00000000

01100110
00000000
00111000
00011000
00011000
00011000
00111100
00000000

01111100
10000010
00111000
00011000
00011000
00011000
00111100
00000000

11100000
00010000
00111000
00011000
00011000
00011000
00111100
00000000

11000110
00000000
01111100
11000110
11111110
11000110
11000110
00000000

00111000
00111000
01111100
11000110
11111110
11000110
11000110
00000000

00001110
00010000
11111110
01100000
01111000
01100000
11111110
00000000

00000000
00000000
01111100
00010010
01111110
11010000
01111110
00000000

01111110
11001000
11001000
11111110
11001000
11001000
11001110
00000000

01111100
10000010
01111100
11000110
11000110
11000110
01111100
00000000

11000110
00000000
01111100
11000110
11000110
11000110
01111100
00000000

11100000
00010000
01111100
11000110
11000110
11000110
01111100
00000000

01111100
10000010
11001100
11001100
11001100
11001100
01110110
00000000

11100000
00010000
11001100
11001100
11001100
11001100
01110110
00000000

11001100
00000000
11001100
11001100
11001100
01111100
00001100
11111000

11000110
01111100
11000110
11000110
11000110
11000110
01111100
00000000

11000110
00000000
11000110
11000110
11000110
11000110
01111100
00000000

00011000
01111100
11010110
11010000
11010110
01111100
00011000
00000000

00111000
01101100
01100000
11110000
01100000
11110010
11011100
00000000

01100110
00111100
00011000
01111110
00011000
01111110
00011000
00000000

11111000
11001100
11111000
11000100
11001100
11011110
11001100
00000110

00001110
00011011
00011000
00111100
00011000
00011000
11011000
01110000

00001110
00010000
01111000
00001100
01111100
11001100
01110110
00000000

00001110
00010000
00111000
00011000
00011000
00011000
00111100
00000000

00001110
00010000
01111100
11000110
11000110
11000110
01111100
00000000

00001110
00010000
11001100
11001100
11001100
11001100
01110110
00000000

01100110
10011000
11011100
01100110
01100110
01100110
01100110
00000000

01100110
10011000
11100110
11110110
11011110
11001110
11000110
00000000

00111000
00001100
00111100
00110100
00000000
01111110
00000000
00000000

00111000
01101100
01101100
00111000
00000000
01111100
00000000
00000000

00110000
00000000
00110000
01100000
11000110
11000110
01111100
00000000

00000000
00000000
00000000
11111100
11000000
11000000
00000000
00000000

00000000
00000000
00000000
11111100
00001100
00001100
00000000
00000000

11000000
11001000
11010000
11111110
01000110
10001100
00011110
00000000

11000000
11001000
11010000
11101100
01011100
10111110
00001100
00000000

00011000
00000000
00011000
00011000
00111100
00111100
00011000
00000000

00000000
00110110
01101100
11011000
01101100
00110110
00000000
00000000

00000000
11011000
01101100
00110110
01101100
11011000
00000000
00000000

00100010
10001000
00100010
10001000
00100010
10001000
00100010
10001000

01010101
10101010
01010101
10101010
01010101
10101010
01010101
10101010

11011011
01110111
11011011
11101110
11011011
01110111
11011011
11101110

00011000
00011000
00011000
00011000
00011000
00011000
00011000
00011000

00011000
00011000
00011000
00011000
11111000
00011000
00011000
00011000

00011000
00011000
11111000
00011000
11111000
00011000
00011000
00011000

00110110
00110110
00110110
00110110
11110110
00110110
00110110
00110110

00000000
00000000
00000000
00000000
11111110
00110110
00110110
00110110

00000000
00000000
11111000
00011000
11111000
00011000
00011000
00011000

00110110
00110110
11110110
00000110
11110110
00110110
00110110
00110110

00110110
00110110
00110110
00110110
00110110
00110110
00110110
00110110

00000000
00000000
11111110
00000110
11110110
00110110
00110110
00110110

00110110
00110110
11110110
00000110
11111110
00000000
00000000
00000000

00110110
00110110
00110110
00110110
11111110
00000000
00000000
00000000

00011000
00011000
11111000
00011000
11111000
00000000
00000000
00000000

00000000
00000000
00000000
00000000
11111000
00011000
00011000
00011000

00011000
00011000
00011000
00011000
00011111
00000000
00000000
00000000

00011000
00011000
00011000
00011000
11111111
00000000
00000000
00000000

00000000
00000000
00000000
00000000
11111111
00011000
00011000
00011000

00011000
00011000
00011000
00011000
00011111
00011000
00011000
00011000

00000000
00000000
00000000
00000000
11111111
00000000
00000000
00000000

00011000
00011000
00011000
00011000
11111111
00011000
00011000
00011000

00011000
00011000
00011111
00011000
00011111
00011000
00011000
00011000

00110110
00110110
00110110
00110110
00110111
00110110
00110110
00110110

00110110
00110110
00110111
00110000
00111111
00000000
00000000
00000000

00000000
00000000
00111111
00110000
00110111
00110110
00110110
00110110

00110110
00110110
11110111
00000000
11111111
00000000
00000000
00000000

00000000
00000000
11111111
00000000
11110111
00110110
00110110
00110110

00110110
00110110
00110111
00110000
00110111
00110110
00110110
00110110

00000000
00000000
11111111
00000000
11111111
00000000
00000000
00000000

00110110
00110110
11110111
00000000
11110111
00110110
00110110
00110110

00011000
00011000
11111111
00000000
11111111
00000000
00000000
00000000

00110110
00110110
00110110
00110110
11111111
00000000
00000000
00000000

00000000
00000000
11111111
00000000
11111111
00011000
00011000
00011000

00000000
00000000
00000000
00000000
11111111
00110110
00110110
00110110

00110110
00110110
00110110
00110110
00111111
00000000
00000000
00000000

00011000
00011000
00011111
00011000
00011111
00000000
00000000
00000000

00000000
00000000
00011111
00011000
00011111
00011000
00011000
00011000

00000000
00000000
00000000
00000000
00111111
00110110
00110110
00110110

00110110
00110110
00110110
00110110
11111111
00110110
00110110
00110110

00011000
00011000
11111111
00011000
11111111
00011000
00011000
00011000

00011000
00011000
00011000
00011000
11111000
00000000
00000000
00000000

00000000
00000000
00000000
00000000
00011111
00011000
00011000
00011000

11111111
11111111
11111111
11111111
11111111
11111111
11111111
11111111

00000000
00000000
00000000
00000000
11111111
11111111
11111111
11111111

11110000
11110000
11110000
11110000
11110000
11110000
11110000
11110000

00001111
00001111
00001111
00001111
00001111
00001111
00001111
00001111

11111111
11111111
11111111
11111111
00000000
00000000
00000000
00000000

00000000
00000000
01110100
11001100
11001000
11011100
01110110
00000000

01111000
11001100
11011000
11001100
11000110
11000110
11011100
01000000

11111110
01100010
01100000
01100000
01100000
01100000
11110000
00000000

00000000
00000010
01111110
11101100
01101100
01101100
01001000
00000000

11111110
01100010
00110000
00011000
00110000
01100010
11111110
00000000

00000000
00000000
01111110
11010000
11001000
11001000
01110000
00000000

00000000
00000000
11001100
11001100
11001100
11001100
11111000
10000000

00000000
00000000
01111110
11011000
00011000
00011000
00010000
00000000

00111000
00010000
01111100
11010110
11010110
01111100
00010000
00111000

01111100
11000110
11000110
11111110
11000110
11000110
01111100
00000000

01111100
11000110
11000110
11000110
01101100
00101000
11101110
00000000

00111100
00100010
00011000
01111100
11001100
11001100
01111000
00000000

00000000
00000000
01100110
10011001
10011001
01100110
00000000
00000000

00000000
00000110
01111100
10011110
11110010
01111100
11000000
00000000

00000000
00000000
01111100
11000000
11111000
11000000
01111100
00000000

00000000
01111100
11000110
11000110
11000110
11000110
11000110
00000000

00000000
11111110
00000000
11111110
00000000
11111110
00000000
00000000

00011000
00011000
01111110
00011000
00011000
00000000
01111110
00000000

00110000
00011000
00001100
00011000
00110000
00000000
01111100
00000000

00011000
00110000
01100000
00110000
00011000
00000000
01111100
00000000

00001110
00011011
00011011
00011000
00011000
00011000
00011000
00011000

00011000
00011000
00011000
00011000
00011000
11011000
11011000
01110000

00000000
00011000
00000000
01111110
00000000
00011000
00000000
00000000

00000000
01110110
11011100
00000000
01110110
11011100
00000000
00000000

00111000
01101100
00111000
00000000
00000000
00000000
00000000
00000000

00000000
00000000
00000000
00011000
00011000
00000000
00000000
00000000

00000000
00000000
00000000
00000000
00011000
00000000
00000000
00000000

# This ends at character #250, There's some space left for extra characters to #255
